<svg xmlns="http://www.w3.org/2000/svg" viewBox="0 0 141.02 140.2"><g id="Capa_2" data-name="Capa 2"><g id="Capa_1-2" data-name="Capa 1"><path d="M18.72,140.2H44.28a15.3,15.3,0,0,0,4.48-.59,5.38,5.38,0,0,0,2.94-2.09,7.17,7.17,0,0,0,1.06-4.2q0-4.06-2.29-5.32a12.86,12.86,0,0,0-6.19-1.26H18.72Z"/><polygon points="49.09 0 27.47 0 49.09 52.34 49.09 0"/><polygon points="101.13 43.9 113.83 43.9 107.57 26.39 107.39 26.39 101.13 43.9"/><path d="M70.51,77.89h-22a39.92,39.92,0,0,1,12.87,2,20.46,20.46,0,0,1,9.48,6.39q3.57,4.4,3.57,11.65a19.43,19.43,0,0,1-1.65,8.2,16,16,0,0,1-4.57,5.93,17.61,17.61,0,0,1-6.71,3.32,20.47,20.47,0,0,1,6.38,1.94,16.12,16.12,0,0,1,5,3.9,17.32,17.32,0,0,1,3.31,6.08,27.71,27.71,0,0,1,1.17,8.48,26.34,26.34,0,0,1-.4,4.43h35.43a17.63,17.63,0,0,0,4.83-.59,5.84,5.84,0,0,0,3.19-2.09,6.81,6.81,0,0,0,1.13-4.2q0-4.06-2.47-5.32a14.8,14.8,0,0,0-6.68-1.26H100.54V108.37h11.72a14.22,14.22,0,0,0,4.12-.53A4.79,4.79,0,0,0,119,106a6.34,6.34,0,0,0,.94-3.69q0-3.56-2-4.58a13.1,13.1,0,0,0-5.68-1H81.33V77.89Z"/><polygon points="70.51 50.06 70.51 60.38 95.39 0 70.51 0 70.51 22.43 70.51 50.06"/><path d="M50.44,106a6.76,6.76,0,0,0,.87-3.69q0-3.56-1.89-4.58a11.4,11.4,0,0,0-5.27-1H18.72v11.68H44.15a12.23,12.23,0,0,0,3.82-.53A4.45,4.45,0,0,0,50.44,106Z"/><polygon points="119.45 0 141.01 52.34 141.01 0 119.45 0"/><path d="M121.64,64.11H93.31L88.2,77.89h28.73a46.28,46.28,0,0,1,13.9,2A22.16,22.16,0,0,1,141,86.24V77.89H126.7Z"/><polygon points="19.31 23.59 19.31 64.11 0 64.11 0 77.89 41.4 77.89 19.31 23.59"/><path d="M138.19,112.05a19.56,19.56,0,0,1-7.23,3.32,23.37,23.37,0,0,1,6.88,1.94,18.07,18.07,0,0,1,3.18,1.9v-9.83A15.93,15.93,0,0,1,138.19,112.05Z"/></g></g></svg>